<?xml version="1.0" encoding="utf-8"?>
<svg width="372" height="566" viewBox="0 0 372 566" xmlns="http://www.w3.org/2000/svg">
<rect id="frame" x="0" y="0" width="372" height="566" fill="#f7f7f7" stroke="none" stroke-width="0"/>

<!-- Association defini -->
<g>
	<line x1="57" y1="51" x2="177" y2="51" stroke="#9970ab" stroke-width="2"/>
	<text x="108" y="68" fill="#1b7837" font-family="Verdana" font-size="12">0,N</text>
	<line x1="57" y1="210" x2="177" y2="51" stroke="#9970ab" stroke-width="2"/>
	<text x="81.21" y="143" fill="#1b7837" font-family="Verdana" font-size="12">1,1</text>
	<g>
		<path d="M187 26 a14 14 90 0 1 14 14 V51 h-48 V40 a14 14 90 0 1 14 -14" fill="#c2a5cf" stroke="#c2a5cf" stroke-width="0"/>
		<path d="M201 51 v11 a14 14 90 0 1 -14 14 H167 a14 14 90 0 1 -14 -14 V51 H48" fill="#e7d4e8" stroke="#e7d4e8" stroke-width="0"/>
		<rect x="153" y="26" width="48" height="50" fill="none" rx="14" stroke="#9970ab" stroke-width="2"/>
		<line x1="153" y1="51" x2="201" y2="51" stroke="#9970ab" stroke-width="1"/>
		<text x="160" y="43.75" fill="#000" font-family="Verdana" font-size="12">defini</text>
	</g>
</g>

<!-- Association valide -->
<g>
	<line x1="57" y1="210" x2="177" y2="126" stroke="#9970ab" stroke-width="2"/>
	<text x="110" y="188.07" fill="#1b7837" font-family="Verdana" font-size="12">1,1</text>
	<line x1="313" y1="210" x2="177" y2="126" stroke="#9970ab" stroke-width="2"/>
	<text x="241" y="193.82" fill="#1b7837" font-family="Verdana" font-size="12">1,1</text>
	<g>
		<path d="M189 101 a14 14 90 0 1 14 14 V126 h-52 V115 a14 14 90 0 1 14 -14" fill="#c2a5cf" stroke="#c2a5cf" stroke-width="0"/>
		<path d="M203 126 v11 a14 14 90 0 1 -14 14 H165 a14 14 90 0 1 -14 -14 V126 H52" fill="#e7d4e8" stroke="#e7d4e8" stroke-width="0"/>
		<rect x="151" y="101" width="52" height="50" fill="none" rx="14" stroke="#9970ab" stroke-width="2"/>
		<line x1="151" y1="126" x2="203" y2="126" stroke="#9970ab" stroke-width="1"/>
		<text x="159" y="118.75" fill="#000" font-family="Verdana" font-size="12">valide</text>
	</g>
</g>

<!-- Association possède -->
<g>
	<line x1="57" y1="210" x2="177" y2="210" stroke="#9970ab" stroke-width="2"/>
	<text x="110" y="227" fill="#1b7837" font-family="Verdana" font-size="12">0,N</text>
	<line x1="313" y1="210" x2="177" y2="210" stroke="#9970ab" stroke-width="2"/>
	<text x="241" y="227" fill="#1b7837" font-family="Verdana" font-size="12">1,1</text>
	<g>
		<path d="M195 185 a14 14 90 0 1 14 14 V210 h-64 V199 a14 14 90 0 1 14 -14" fill="#c2a5cf" stroke="#c2a5cf" stroke-width="0"/>
		<path d="M209 210 v11 a14 14 90 0 1 -14 14 H159 a14 14 90 0 1 -14 -14 V210 H64" fill="#e7d4e8" stroke="#e7d4e8" stroke-width="0"/>
		<rect x="145" y="185" width="64" height="50" fill="none" rx="14" stroke="#9970ab" stroke-width="2"/>
		<line x1="145" y1="210" x2="209" y2="210" stroke="#9970ab" stroke-width="1"/>
		<text x="152" y="202.75" fill="#000" font-family="Verdana" font-size="12">possède</text>
	</g>
</g>

<!-- Association compose -->
<g>
	<line x1="57" y1="210" x2="57" y2="345" stroke="#9970ab" stroke-width="2"/>
	<text x="62" y="286" fill="#1b7837" font-family="Verdana" font-size="12">0,N</text>
	<line x1="177" y1="345" x2="57" y2="345" stroke="#9970ab" stroke-width="2"/>
	<text x="97" y="362" fill="#1b7837" font-family="Verdana" font-size="12">1,1</text>
	<g>
		<path d="M77 320 a14 14 90 0 1 14 14 V345 h-68 V334 a14 14 90 0 1 14 -14" fill="#c2a5cf" stroke="#c2a5cf" stroke-width="0"/>
		<path d="M91 345 v11 a14 14 90 0 1 -14 14 H37 a14 14 90 0 1 -14 -14 V345 H68" fill="#e7d4e8" stroke="#e7d4e8" stroke-width="0"/>
		<rect x="23" y="320" width="68" height="50" fill="none" rx="14" stroke="#9970ab" stroke-width="2"/>
		<line x1="23" y1="345" x2="91" y2="345" stroke="#9970ab" stroke-width="1"/>
		<text x="30" y="337.75" fill="#000" font-family="Verdana" font-size="12">compose</text>
	</g>
</g>

<!-- Association créer -->
<g>
	<line x1="177" y1="345" x2="177" y2="489" stroke="#9970ab" stroke-width="2"/>
	<text x="151" y="413" fill="#1b7837" font-family="Verdana" font-size="12">1,1</text>
	<line x1="57" y1="489" x2="177" y2="489" stroke="#9970ab" stroke-width="2"/>
	<text x="108" y="506" fill="#1b7837" font-family="Verdana" font-size="12">1,1</text>
	<g>
		<path d="M186 464 a14 14 90 0 1 14 14 V489 h-46 V478 a14 14 90 0 1 14 -14" fill="#c2a5cf" stroke="#c2a5cf" stroke-width="0"/>
		<path d="M200 489 v11 a14 14 90 0 1 -14 14 H168 a14 14 90 0 1 -14 -14 V489 H46" fill="#e7d4e8" stroke="#e7d4e8" stroke-width="0"/>
		<rect x="154" y="464" width="46" height="50" fill="none" rx="14" stroke="#9970ab" stroke-width="2"/>
		<line x1="154" y1="489" x2="200" y2="489" stroke="#9970ab" stroke-width="1"/>
		<text x="161" y="481.75" fill="#000" font-family="Verdana" font-size="12">créer</text>
	</g>
</g>

<!-- Association detient -->
<g>
	<line x1="313" y1="345" x2="313" y2="489" stroke="#9970ab" stroke-width="2"/>
	<text x="318" y="396" fill="#1b7837" font-family="Verdana" font-size="12">0,N</text>
	<line x1="177" y1="345" x2="313" y2="489" stroke="#9970ab" stroke-width="2"/>
	<text x="204.95" y="413" fill="#1b7837" font-family="Verdana" font-size="12">0,N</text>
	<g>
		<path d="M328 464 a14 14 90 0 1 14 14 V489 h-58 V478 a14 14 90 0 1 14 -14" fill="#c2a5cf" stroke="#c2a5cf" stroke-width="0"/>
		<path d="M342 489 v11 a14 14 90 0 1 -14 14 H298 a14 14 90 0 1 -14 -14 V489 H58" fill="#e7d4e8" stroke="#e7d4e8" stroke-width="0"/>
		<rect x="284" y="464" width="58" height="50" fill="none" rx="14" stroke="#9970ab" stroke-width="2"/>
		<line x1="284" y1="489" x2="342" y2="489" stroke="#9970ab" stroke-width="1"/>
		<text x="292" y="481.75" fill="#000" font-family="Verdana" font-size="12">detient</text>
	</g>
</g>

<!-- Entity niveau -->
<g>
	<g>
		<rect x="11" y="9" width="92" height="25" fill="#a6dba0" stroke="#a6dba0" stroke-width="0" opacity="1"/>
		<rect x="11" y="34" width="92" height="59" fill="#d9f0d3" stroke="#d9f0d3" stroke-width="0" opacity="1"/>
		<rect x="11" y="9" width="92" height="84" fill="none" stroke="#5aae61" stroke-width="2" opacity="1"/>
		<line x1="11" y1="34" x2="103" y2="34" stroke="#5aae61" stroke-width="1"/>
	</g>
	<text x="37" y="26.75" fill="#000" font-family="Verdana" font-size="12">niveau</text>
	<text x="16" y="51.8" fill="#000" font-family="Verdana" font-size="12">débutant</text>
	<text x="16" y="68.8" fill="#000" font-family="Verdana" font-size="12">intermédiaire</text>
	<text x="16" y="85.8" fill="#000" font-family="Verdana" font-size="12">expert</text>
</g>

<!-- Entity Question -->
<g>
	<g>
		<rect x="9" y="151" width="96" height="25" fill="#a6dba0" stroke="#a6dba0" stroke-width="0" opacity="1"/>
		<rect x="9" y="176" width="96" height="93" fill="#d9f0d3" stroke="#d9f0d3" stroke-width="0" opacity="1"/>
		<rect x="9" y="151" width="96" height="118" fill="none" stroke="#5aae61" stroke-width="2" opacity="1"/>
		<line x1="9" y1="176" x2="105" y2="176" stroke="#5aae61" stroke-width="1"/>
	</g>
	<text x="30" y="168.75" fill="#000" font-family="Verdana" font-size="12">Question</text>
	<text x="14" y="193.8" fill="#000" font-family="Verdana" font-size="12">code question</text>
	<text x="14" y="210.8" fill="#000" font-family="Verdana" font-size="12">question</text>
	<text x="14" y="227.8" fill="#000" font-family="Verdana" font-size="12">anectddote</text>
	<text x="14" y="244.8" fill="#000" font-family="Verdana" font-size="12">wiki(indice</text>
	<text x="14" y="261.8" fill="#000" font-family="Verdana" font-size="12">info)</text>
</g>

<!-- Entity Réponse -->
<g>
	<g>
		<rect x="267" y="168" width="92" height="25" fill="#a6dba0" stroke="#a6dba0" stroke-width="0" opacity="1"/>
		<rect x="267" y="193" width="92" height="59" fill="#d9f0d3" stroke="#d9f0d3" stroke-width="0" opacity="1"/>
		<rect x="267" y="168" width="92" height="84" fill="none" stroke="#5aae61" stroke-width="2" opacity="1"/>
		<line x1="267" y1="193" x2="359" y2="193" stroke="#5aae61" stroke-width="1"/>
	</g>
	<text x="287" y="185.75" fill="#000" font-family="Verdana" font-size="12">Réponse</text>
	<text x="272" y="210.8" fill="#000" font-family="Verdana" font-size="12">code réponse</text>
	<text x="272" y="227.8" fill="#000" font-family="Verdana" font-size="12">description</text>
</g>

<!-- Entity Quizz -->
<g>
	<g>
		<rect x="123" y="294" width="108" height="25" fill="#a6dba0" stroke="#a6dba0" stroke-width="0" opacity="1"/>
		<rect x="123" y="319" width="108" height="77" fill="#d9f0d3" stroke="#d9f0d3" stroke-width="0" opacity="1"/>
		<rect x="123" y="294" width="108" height="102" fill="none" stroke="#5aae61" stroke-width="2" opacity="1"/>
		<line x1="123" y1="319" x2="231" y2="319" stroke="#5aae61" stroke-width="1"/>
	</g>
	<text x="160" y="311.75" fill="#000" font-family="Verdana" font-size="12">Quizz</text>
	<text x="128" y="336.8" fill="#000" font-family="Verdana" font-size="12">code quizz</text>
	<text x="128" y="353.8" fill="#000" font-family="Verdana" font-size="12">titre</text>
	<text x="128" y="370.8" fill="#000" font-family="Verdana" font-size="12">description</text>
	<text x="128" y="387.8" fill="#000" font-family="Verdana" font-size="12">nb de questions</text>
</g>

<!-- Entity Catégorie -->
<g>
	<g>
		<rect x="263" y="311" width="100" height="25" fill="#a6dba0" stroke="#a6dba0" stroke-width="0" opacity="1"/>
		<rect x="263" y="336" width="100" height="43" fill="#d9f0d3" stroke="#d9f0d3" stroke-width="0" opacity="1"/>
		<rect x="263" y="311" width="100" height="68" fill="none" stroke="#5aae61" stroke-width="2" opacity="1"/>
		<line x1="263" y1="336" x2="363" y2="336" stroke="#5aae61" stroke-width="1"/>
	</g>
	<text x="284" y="328.75" fill="#000" font-family="Verdana" font-size="12">Catégorie</text>
	<text x="268" y="353.8" fill="#000" font-family="Verdana" font-size="12">code catégorie</text>
	<text x="268" y="370.8" fill="#000" font-family="Verdana" font-size="12">nom</text>
</g>

<!-- Entity User -->
<g>
	<g>
		<rect x="11" y="421" width="92" height="25" fill="#a6dba0" stroke="#a6dba0" stroke-width="0" opacity="1"/>
		<rect x="11" y="446" width="92" height="111" fill="#d9f0d3" stroke="#d9f0d3" stroke-width="0" opacity="1"/>
		<rect x="11" y="421" width="92" height="136" fill="none" stroke="#5aae61" stroke-width="2" opacity="1"/>
		<line x1="11" y1="446" x2="103" y2="446" stroke="#5aae61" stroke-width="1"/>
	</g>
	<text x="43" y="438.75" fill="#000" font-family="Verdana" font-size="12">User</text>
	<text x="16" y="463.8" fill="#000" font-family="Verdana" font-size="12">code user</text>
	<text x="16" y="480.8" fill="#000" font-family="Verdana" font-size="12">prénom</text>
	<text x="16" y="497.8" fill="#000" font-family="Verdana" font-size="12">nom</text>
	<text x="16" y="514.8" fill="#000" font-family="Verdana" font-size="12">email</text>
	<text x="16" y="531.8" fill="#000" font-family="Verdana" font-size="12">mot de passe</text>
	<text x="16" y="548.8" fill="#000" font-family="Verdana" font-size="12">surnom</text>
</g>
</svg>